<?xml version="1.0"?>
<svg version="1.1" xmlns="http://www.w3.org/2000/svg" width="400" height="200" style="border: dashed 2px #aaa"><path fill="#3b7ba8" d="M21.25,123l0-27l-4.25-1l0-2.75l9.25-0.25l5.75,0c6.25,0,10.75,2.75,10.75,8.75c0,4.5-2.3,7.05-6.5,8.1c5.25,1.2,7.75,4.15,7.75,8.15c0,7-4.5,10-12.75,10l-14.25,0l0-3z M26.25,107l3.75,0c4.5,0,7.5-1.75,7.5-5.75c0-3.5-2.5-5.25-5.75-5.25l-5.5,0l0,11z M26.25,123l5.25,0c4.75,0,7.25-2,7.25-5.75c0-5-3.25-6.5-8.75-6.5l-3.75,0l0,12.25z M61.93,106.75l11.5,0l0,4l-11.5,0l0,12.25l11.5,0l1-5l3.25,0l0,9l-25.25,0l0-3l4.25-1l0-27l-4.25-1l0-2.75l9.5-0.25l15.25,0l0,8.5l-3.25,0l-1.25-4.5l-10.75,0l0,10.75z M91.61,116.75l1,5.25s2.25,1.25,5.5,1.25c3.65,0,7.65-1.8,7.65-5.35c0-7.7-18.05-4.5-18.05-16.45c0-7,5.6-9.95,11.85-9.95c4.75,0,10.55,2,10.55,2l-0.25,8.5l-3.25,0l-1.7-5.35s-2.55-0.9-5.3-0.9c-4.5,0-6.65,2.35-6.65,4.85c0,7.6,18,4.7,18,15.95c0,7.5-6.05,10.95-13.05,10.95c-5.25,0-10.3-2-10.3-2l0-8.75l4,0z M123.89,127l0-3l5-1l0-27l-6.5,0l-1.25,5l-3.25,0l0-9l27.25,0l0,9l-3.25,0l-1.25-5l-6.5,0l0,27l5,1l0,3l-15.25,0z M155.32,123l0-27l-4.25-1l0-2.75l9.5-0.25l5.5,0c7.05,0,11.25,3.4,11.25,9c0,4.85-2.2,8.15-6.5,9.75c0.8,0.7,1.7,2,3,4.5l3.95,7.95l3.55,0.8l0,3l-7.5,0l-4.25-9.25c-2.35-5-3.45-6-6.75-6l-2.25,0l0,11.25l4.25,1l0,3l-13.75,0l0-3z M160.57,108l3.75,0c4.9,0,7.75-2.3,7.75-6.25c0-3.35-2.6-5.75-6.25-5.75l-5.25,0l0,12z M187.25,127l0-3l4.25-1l0-27l-4.25-1l0-2.75l13.75-0.25l0,3l-4.25,1l0,27l4.25,1l0,3l-13.75,0z M213.18,123l0-27l-4.25-1l0-2.75l9.5-0.25l6.25,0c9.75,0,15.75,6,15.75,17s-6.5,18-16.5,18l-15,0l0-3z M218.43,123l5.75,0c6.25,0,10.5-4.25,10.5-13.75c0-9.25-4-13.25-10.25-13.25l-6,0l0,27z M258.61,106.75l11.5,0l0,4l-11.5,0l0,12.25l11.5,0l1-5l3.25,0l0,9l-25.25,0l0-3l4.25-1l0-27l-4.25-1l0-2.75l9.5-0.25l15.25,0l0,8.5l-3.25,0l-1.25-4.5l-10.75,0l0,10.75z"/><path fill="#" d=""/></svg>
